<svg width="24" height="24" viewBox="0 0 24 24" fill="none" xmlns="http://www.w3.org/2000/svg">
<path fill-rule="evenodd" clip-rule="evenodd" d="M6.00689 21.8981C5.75695 22.0267 5.45582 22.0031 5.22901 21.8371C5.00221 21.671 4.88867 21.3911 4.93572 21.114L6.01389 14.813C6.05345 14.5714 5.97241 14.3256 5.79686 14.1549L1.22514 9.73022C1.02194 9.5329 0.94878 9.23713 1.03656 8.96783C1.12434 8.69854 1.35775 8.50269 1.6382 8.46303L7.93919 7.54588C8.18189 7.51232 8.39192 7.36005 8.49928 7.13982L11.2997 1.41292C11.4249 1.16002 11.6827 1 11.9648 1C12.247 1 12.5048 1.16002 12.6299 1.41292L15.4304 7.13982C15.5415 7.35688 15.7496 7.50778 15.9905 7.54588L22.2915 8.46303C22.5855 8.47635 22.8439 8.66218 22.95 8.9367C23.0562 9.21121 22.9901 9.52253 22.7815 9.73022L18.2098 14.1829C18.0368 14.355 17.9584 14.6005 17.9998 14.841L19.0779 21.142C19.1213 21.4196 19.0057 21.6982 18.7784 21.8635C18.5512 22.0287 18.2505 22.0529 17.9998 21.9261L12.3499 18.9507C12.137 18.8297 11.8787 18.8192 11.6568 18.9227L6.00689 21.8981Z" fill="#0000FF"/>
</svg>
