<svg width="24" height="24" viewBox="0 0 24 24" fill="none" xmlns="http://www.w3.org/2000/svg">
<path d="M6.99956 14.9817L6.99959 14.9817L7.00075 14.9746C7.09313 14.4104 6.90391 13.8366 6.494 13.438L6.49231 13.4364L2.29854 9.37745L8.08042 8.53586C8.65123 8.4555 9.14497 8.09685 9.39784 7.57866C9.39795 7.57845 9.39806 7.57823 9.39816 7.57801L11.9648 2.32918L14.532 7.57911L14.5402 7.59543C14.7969 8.09694 15.2778 8.44558 15.8342 8.5336L15.8342 8.53368L15.8464 8.53545L21.7002 9.3875L17.5121 13.4666L17.5121 13.4665L17.5046 13.4739C17.1007 13.8756 16.9177 14.449 17.0142 15.0105L18.0046 20.7985L12.8271 18.0718C12.336 17.7997 11.7439 17.7788 11.2343 18.0163C11.2196 18.0231 11.2051 18.0303 11.1908 18.0379L6.00973 20.7664L6.99956 14.9817Z" stroke="black" stroke-width="2" stroke-linecap="round" stroke-linejoin="round"/>
</svg>
