<svg width="24" height="24" viewBox="0 0 24 24" fill="none" xmlns="http://www.w3.org/2000/svg">
<path d="M7.16648 17.752L6.05648 18.382C5.98656 18.4147 5.9052 18.4117 5.83783 18.3741C5.77046 18.3364 5.72531 18.2687 5.71648 18.192V15.922C5.71541 15.8135 5.6416 15.7192 5.53648 15.692L2.96648 14.992C2.88132 14.9696 2.81528 14.9024 2.79441 14.8168C2.77354 14.7312 2.80121 14.6411 2.86648 14.582L5.22648 12.412C5.2876 12.3567 5.31605 12.2739 5.30184 12.1927C5.28763 12.1115 5.23275 12.0433 5.15648 12.012L2.15648 10.672C2.06242 10.6371 2 10.5474 2 10.447C2 10.3467 2.06242 10.2569 2.15648 10.222L5.39648 9.15203C5.46699 9.13121 5.52407 9.07923 5.55137 9.01098C5.57867 8.94272 5.57318 8.86572 5.53648 8.80203L3.71648 5.43203C3.65006 5.34265 3.65721 5.21852 3.73345 5.13736C3.8097 5.0562 3.93313 5.04131 4.02648 5.10203L7.82648 6.99203C7.89436 7.0285 7.97563 7.03016 8.04494 6.9965C8.11425 6.96283 8.16319 6.89793 8.17648 6.82203L8.84648 2.20203C8.86229 2.10341 8.93752 2.02489 9.03536 2.00488C9.13321 1.98487 9.23322 2.02754 9.28648 2.11203L11.4565 5.63203C11.5 5.70356 11.5777 5.74723 11.6615 5.74723C11.7452 5.74723 11.8229 5.70356 11.8665 5.63203L14.0265 2.11203C14.0797 2.02754 14.1798 1.98487 14.2776 2.00488C14.3755 2.02489 14.4507 2.10341 14.4665 2.20203L15.1865 6.82203C15.1998 6.89793 15.2487 6.96283 15.318 6.9965C15.3873 7.03016 15.4686 7.0285 15.5365 6.99203L19.3365 5.10203C19.4298 5.04131 19.5533 5.0562 19.6295 5.13736C19.7058 5.21852 19.7129 5.34265 19.6465 5.43203L17.7765 8.80203C17.7435 8.86634 17.74 8.94178 17.7669 9.00888C17.7937 9.07598 17.8483 9.12818 17.9165 9.15203L21.1865 10.222C21.2805 10.2569 21.343 10.3467 21.343 10.447C21.343 10.5474 21.2805 10.6371 21.1865 10.672L18.1865 12.002C18.1088 12.0361 18.0549 12.1086 18.0446 12.1928C18.0344 12.277 18.0693 12.3603 18.1365 12.412L20.8665 14.562C20.9362 14.6228 20.9666 14.717 20.9457 14.8071C20.9247 14.8971 20.8558 14.9682 20.7665 14.992L17.7665 15.702C17.6574 15.7252 17.5787 15.8205 17.5765 15.932V18.192C17.5773 18.2782 17.5318 18.3581 17.4574 18.4015C17.383 18.4449 17.2911 18.4451 17.2165 18.402L16.1165 17.752" stroke="#6E6E71" stroke-width="0.5"/>
<rect x="7.07666" y="7.54202" width="9.16" height="14.46" rx="4.58" stroke="#6E6E71" stroke-width="0.5"/>
<circle cx="9.48641" cy="13.552" r="2.17" stroke="#6E6E71" stroke-width="0.5"/>
<circle cx="9.48646" cy="13.552" r="0.36" fill="#6E6E71"/>
<circle cx="13.8263" cy="13.552" r="2.17" stroke="#6E6E71" stroke-width="0.5"/>
<circle cx="13.8263" cy="13.552" r="0.36" fill="#6E6E71"/>
<path d="M9.71631 18.372C10.8321 19.3097 12.4605 19.3097 13.5763 18.372" stroke="#6E6E71" stroke-width="0.5" stroke-linecap="round"/>
<path d="M11.1762 16.182V17.182C11.1735 17.3102 11.2232 17.4338 11.3138 17.5245C11.4044 17.6151 11.5281 17.6648 11.6562 17.662V17.662C11.7844 17.6648 11.9081 17.6151 11.9987 17.5245C12.0893 17.4338 12.139 17.3102 12.1363 17.182V16.182" stroke="#6E6E71" stroke-width="0.5" stroke-linecap="round"/>
<path d="M9.71631 10.152H10.2863C10.5403 10.1556 10.7834 10.2557 10.9663 10.432V10.432C11.3499 10.7877 11.9428 10.7877 12.3263 10.432V10.432C12.5092 10.2557 12.7523 10.1556 13.0063 10.152H13.5763" stroke="#6E6E71" stroke-width="0.5" stroke-linecap="round"/>
</svg>
